<svg width="179" height="16" viewBox="0 0 179 16" fill="none" xmlns="http://www.w3.org/2000/svg">
<g clip-path="url(#clip0_8192_275)">
<path d="M8.48557 12.6262H3.85576L3.11073 14.3085H0L6.16824 1.60449L12.3413 14.3085H9.23059L8.48557 12.6262ZM7.46478 10.3268L6.16824 7.38735L4.8717 10.3268H7.46478Z" fill="black"/>
<path d="M15.5343 7.95884C15.5343 4.43884 18.5483 1.60913 22.3024 1.60913C24.1505 1.60913 25.8486 2.31313 27.1935 3.6297L25.2342 5.48113C24.4408 4.67199 23.4538 4.24227 22.3024 4.24227C20.0674 4.24227 18.3209 5.87884 18.3209 7.95884C18.3209 10.0388 20.0722 11.6754 22.2879 11.6754C23.0958 11.6754 23.8409 11.4606 24.4891 11.0491V9.25713H21.9638V6.65599H27.0967V12.5303C25.7034 13.664 24.1021 14.304 22.3218 14.304C18.5483 14.3086 15.5343 11.4743 15.5343 7.95884Z" fill="black"/>
<path d="M39.9122 12.6262H35.2824L34.5374 14.3085H31.4266L37.5949 1.60449L43.7631 14.3085H40.6524L39.9122 12.6262ZM38.8914 10.3268L37.5949 7.38735L36.2983 10.3268H38.8914Z" fill="black"/>
<path d="M48.1897 1.76001H50.9424V14.1532H48.1897V1.76001Z" fill="black"/>
<path d="M59.2684 7.54276V14.153H56.5156V1.45361L64.0143 8.40218V1.7599H66.767V14.4593L59.2684 7.54276Z" fill="black"/>
<path d="M86.3361 0H89.3646L82.3691 15.9131H79.3406L86.3361 0Z" fill="black"/>
<path d="M102.165 1.76001H110.588V4.36115H104.923V6.65601H109.945V9.25715H104.923V14.1532H102.17V1.76001H102.165Z" fill="black"/>
<path d="M122.267 12.6263H117.637L116.892 14.3086H113.781L119.949 1.60913L126.118 14.3086H123.007L122.267 12.6263ZM121.246 10.3268L119.949 7.38742L118.653 10.3268H121.246Z" fill="black"/>
<path d="M129.136 11.1268L131.681 10.0388C131.797 11.0628 132.537 11.7211 133.51 11.7211C134.4 11.7211 135.014 11.1679 135.014 10.3588C135.014 8.33821 129.867 8.95078 129.867 5.03306C129.867 3.02621 131.42 1.60449 133.592 1.60449C135.309 1.60449 136.732 2.53706 137.269 3.97706L134.874 4.98735C134.681 4.45249 134.226 4.08678 133.645 4.08678C133.016 4.08678 132.61 4.45249 132.61 4.97364C132.61 6.70164 137.777 6.27649 137.777 10.3908C137.777 12.6719 136.011 14.3085 133.582 14.3085C131.434 14.3085 129.591 13.0056 129.136 11.1268Z" fill="black"/>
<path d="M144.705 4.36115H141.497V1.76001H150.645V4.36115H147.457V14.1532H144.705V4.36115V4.36115Z" fill="black"/>
<path d="M155.377 1.76001H163.799V4.36115H158.134V6.65601H163.156V9.25715H158.134V11.552H163.799V14.1532H155.377V1.76001Z" fill="black"/>
<path d="M175.623 14.1532L173.064 9.79201H171.719V14.1532H168.966V1.76001H173.94C176.354 1.76001 178.182 3.4743 178.182 5.76915C178.182 7.40572 177.278 8.73601 175.884 9.38058L178.816 14.1532H175.623ZM171.724 7.19087H173.944C174.849 7.19087 175.435 6.63772 175.435 5.76915C175.435 4.9143 174.854 4.36115 173.944 4.36115H171.724V7.19087Z" fill="black"/>
</g>
<defs>
<clipPath id="clip0_8192_275">
<rect width="179" height="16" fill="white"/>
</clipPath>
</defs>
</svg>
